<mxfile modified="2024-06-11T11:44:25.056Z" host="app.diagrams.net" agent="Mozilla/5.0 (Windows NT 10.0; Win64; x64) AppleWebKit/537.36 (KHTML, like Gecko) Chrome/125.0.0.0 Safari/537.36" etag="HoQ4YK7bGY__pAr8kxFJ" version="24.5.2" type="github">
  <diagram id="Ht1M8jgEwFfnCIfOTk4-" name="Page-1">
    <mxGraphModel dx="1434" dy="780" grid="1" gridSize="10" guides="1" tooltips="1" connect="1" arrows="1" fold="1" page="1" pageScale="1" pageWidth="1169" pageHeight="827" math="0" shadow="0">
      <root>
        <mxCell id="0" />
        <mxCell id="1" parent="0" />
        <mxCell id="quHucMuXMQEVoltr0wWp-3" style="edgeStyle=orthogonalEdgeStyle;rounded=0;orthogonalLoop=1;jettySize=auto;html=1;strokeWidth=3;fillColor=#b0e3e6;strokeColor=#0e8088;" edge="1" parent="1" source="quHucMuXMQEVoltr0wWp-1" target="quHucMuXMQEVoltr0wWp-2">
          <mxGeometry relative="1" as="geometry" />
        </mxCell>
        <mxCell id="quHucMuXMQEVoltr0wWp-1" value="" style="html=1;verticalLabelPosition=bottom;align=center;labelBackgroundColor=#ffffff;verticalAlign=top;strokeWidth=2;strokeColor=#0080F0;shadow=0;dashed=0;shape=mxgraph.ios7.icons.user;" vertex="1" parent="1">
          <mxGeometry x="39" y="140" width="80" height="80" as="geometry" />
        </mxCell>
        <mxCell id="quHucMuXMQEVoltr0wWp-2" value="" style="sketch=0;points=[[0,0,0],[0.25,0,0],[0.5,0,0],[0.75,0,0],[1,0,0],[0,1,0],[0.25,1,0],[0.5,1,0],[0.75,1,0],[1,1,0],[0,0.25,0],[0,0.5,0],[0,0.75,0],[1,0.25,0],[1,0.5,0],[1,0.75,0]];outlineConnect=0;fontColor=#232F3E;fillColor=#7AA116;strokeColor=#ffffff;dashed=0;verticalLabelPosition=bottom;verticalAlign=top;align=center;html=1;fontSize=12;fontStyle=0;aspect=fixed;shape=mxgraph.aws4.resourceIcon;resIcon=mxgraph.aws4.s3;" vertex="1" parent="1">
          <mxGeometry x="199" y="141" width="78" height="78" as="geometry" />
        </mxCell>
        <mxCell id="quHucMuXMQEVoltr0wWp-5" value="AWS Cloud" style="points=[[0,0],[0.25,0],[0.5,0],[0.75,0],[1,0],[1,0.25],[1,0.5],[1,0.75],[1,1],[0.75,1],[0.5,1],[0.25,1],[0,1],[0,0.75],[0,0.5],[0,0.25]];outlineConnect=0;gradientColor=none;html=1;whiteSpace=wrap;fontSize=12;fontStyle=0;container=1;pointerEvents=0;collapsible=0;recursiveResize=0;shape=mxgraph.aws4.group;grIcon=mxgraph.aws4.group_aws_cloud_alt;strokeColor=#232F3E;fillColor=none;verticalAlign=top;align=left;spacingLeft=30;fontColor=#232F3E;dashed=0;" vertex="1" parent="1">
          <mxGeometry x="159" y="80" width="961" height="380" as="geometry" />
        </mxCell>
        <mxCell id="quHucMuXMQEVoltr0wWp-24" style="edgeStyle=orthogonalEdgeStyle;rounded=0;orthogonalLoop=1;jettySize=auto;html=1;fillColor=#b0e3e6;strokeColor=#0e8088;strokeWidth=3;" edge="1" parent="quHucMuXMQEVoltr0wWp-5" source="quHucMuXMQEVoltr0wWp-7" target="quHucMuXMQEVoltr0wWp-8">
          <mxGeometry relative="1" as="geometry" />
        </mxCell>
        <mxCell id="quHucMuXMQEVoltr0wWp-7" value="" style="sketch=0;points=[[0,0,0],[0.25,0,0],[0.5,0,0],[0.75,0,0],[1,0,0],[0,1,0],[0.25,1,0],[0.5,1,0],[0.75,1,0],[1,1,0],[0,0.25,0],[0,0.5,0],[0,0.75,0],[1,0.25,0],[1,0.5,0],[1,0.75,0]];outlineConnect=0;fontColor=#232F3E;fillColor=#ED7100;strokeColor=#ffffff;dashed=0;verticalLabelPosition=bottom;verticalAlign=top;align=center;html=1;fontSize=12;fontStyle=0;aspect=fixed;shape=mxgraph.aws4.resourceIcon;resIcon=mxgraph.aws4.lambda;" vertex="1" parent="quHucMuXMQEVoltr0wWp-5">
          <mxGeometry x="160" y="61" width="78" height="78" as="geometry" />
        </mxCell>
        <mxCell id="quHucMuXMQEVoltr0wWp-17" style="edgeStyle=orthogonalEdgeStyle;rounded=0;orthogonalLoop=1;jettySize=auto;html=1;fillColor=#b0e3e6;strokeColor=#0e8088;strokeWidth=3;" edge="1" parent="quHucMuXMQEVoltr0wWp-5" source="quHucMuXMQEVoltr0wWp-8" target="quHucMuXMQEVoltr0wWp-15">
          <mxGeometry relative="1" as="geometry" />
        </mxCell>
        <mxCell id="quHucMuXMQEVoltr0wWp-8" value="" style="sketch=0;points=[[0,0,0],[0.25,0,0],[0.5,0,0],[0.75,0,0],[1,0,0],[0,1,0],[0.25,1,0],[0.5,1,0],[0.75,1,0],[1,1,0],[0,0.25,0],[0,0.5,0],[0,0.75,0],[1,0.25,0],[1,0.5,0],[1,0.75,0]];outlineConnect=0;fontColor=#232F3E;fillColor=#01A88D;strokeColor=#ffffff;dashed=0;verticalLabelPosition=bottom;verticalAlign=top;align=center;html=1;fontSize=12;fontStyle=0;aspect=fixed;shape=mxgraph.aws4.resourceIcon;resIcon=mxgraph.aws4.sagemaker;" vertex="1" parent="quHucMuXMQEVoltr0wWp-5">
          <mxGeometry x="290" y="61" width="79" height="79" as="geometry" />
        </mxCell>
        <mxCell id="quHucMuXMQEVoltr0wWp-11" value="" style="sketch=0;points=[[0,0,0],[0.25,0,0],[0.5,0,0],[0.75,0,0],[1,0,0],[0,1,0],[0.25,1,0],[0.5,1,0],[0.75,1,0],[1,1,0],[0,0.25,0],[0,0.5,0],[0,0.75,0],[1,0.25,0],[1,0.5,0],[1,0.75,0]];outlineConnect=0;fontColor=#232F3E;fillColor=#7AA116;strokeColor=#ffffff;dashed=0;verticalLabelPosition=bottom;verticalAlign=top;align=center;html=1;fontSize=12;fontStyle=0;aspect=fixed;shape=mxgraph.aws4.resourceIcon;resIcon=mxgraph.aws4.s3;" vertex="1" parent="quHucMuXMQEVoltr0wWp-5">
          <mxGeometry x="432" y="240" width="78" height="78" as="geometry" />
        </mxCell>
        <mxCell id="quHucMuXMQEVoltr0wWp-14" style="edgeStyle=orthogonalEdgeStyle;rounded=0;orthogonalLoop=1;jettySize=auto;html=1;entryX=0;entryY=0.5;entryDx=0;entryDy=0;entryPerimeter=0;fillColor=#b0e3e6;strokeColor=#0e8088;strokeWidth=3;" edge="1" parent="quHucMuXMQEVoltr0wWp-5" source="quHucMuXMQEVoltr0wWp-8" target="quHucMuXMQEVoltr0wWp-11">
          <mxGeometry relative="1" as="geometry">
            <Array as="points">
              <mxPoint x="340" y="279" />
            </Array>
          </mxGeometry>
        </mxCell>
        <mxCell id="quHucMuXMQEVoltr0wWp-18" style="edgeStyle=orthogonalEdgeStyle;rounded=0;orthogonalLoop=1;jettySize=auto;html=1;fillColor=#b0e3e6;strokeColor=#0e8088;strokeWidth=3;" edge="1" parent="quHucMuXMQEVoltr0wWp-5" source="quHucMuXMQEVoltr0wWp-15" target="quHucMuXMQEVoltr0wWp-16">
          <mxGeometry relative="1" as="geometry" />
        </mxCell>
        <mxCell id="quHucMuXMQEVoltr0wWp-15" value="" style="sketch=0;points=[[0,0,0],[0.25,0,0],[0.5,0,0],[0.75,0,0],[1,0,0],[0,1,0],[0.25,1,0],[0.5,1,0],[0.75,1,0],[1,1,0],[0,0.25,0],[0,0.5,0],[0,0.75,0],[1,0.25,0],[1,0.5,0],[1,0.75,0]];outlineConnect=0;fontColor=#232F3E;fillColor=#E7157B;strokeColor=#ffffff;dashed=0;verticalLabelPosition=bottom;verticalAlign=top;align=center;html=1;fontSize=12;fontStyle=0;aspect=fixed;shape=mxgraph.aws4.resourceIcon;resIcon=mxgraph.aws4.sns;" vertex="1" parent="quHucMuXMQEVoltr0wWp-5">
          <mxGeometry x="430" y="61" width="78" height="78" as="geometry" />
        </mxCell>
        <mxCell id="quHucMuXMQEVoltr0wWp-20" style="edgeStyle=orthogonalEdgeStyle;rounded=0;orthogonalLoop=1;jettySize=auto;html=1;fillColor=#b0e3e6;strokeColor=#0e8088;strokeWidth=3;" edge="1" parent="quHucMuXMQEVoltr0wWp-5" source="quHucMuXMQEVoltr0wWp-16" target="quHucMuXMQEVoltr0wWp-19">
          <mxGeometry relative="1" as="geometry" />
        </mxCell>
        <mxCell id="quHucMuXMQEVoltr0wWp-16" value="" style="sketch=0;points=[[0,0,0],[0.25,0,0],[0.5,0,0],[0.75,0,0],[1,0,0],[0,1,0],[0.25,1,0],[0.5,1,0],[0.75,1,0],[1,1,0],[0,0.25,0],[0,0.5,0],[0,0.75,0],[1,0.25,0],[1,0.5,0],[1,0.75,0]];outlineConnect=0;fontColor=#232F3E;fillColor=#E7157B;strokeColor=#ffffff;dashed=0;verticalLabelPosition=bottom;verticalAlign=top;align=center;html=1;fontSize=12;fontStyle=0;aspect=fixed;shape=mxgraph.aws4.resourceIcon;resIcon=mxgraph.aws4.sqs;" vertex="1" parent="quHucMuXMQEVoltr0wWp-5">
          <mxGeometry x="558" y="61" width="78" height="78" as="geometry" />
        </mxCell>
        <mxCell id="quHucMuXMQEVoltr0wWp-23" style="edgeStyle=orthogonalEdgeStyle;rounded=0;orthogonalLoop=1;jettySize=auto;html=1;fillColor=#b0e3e6;strokeColor=#0e8088;strokeWidth=3;" edge="1" parent="quHucMuXMQEVoltr0wWp-5" source="quHucMuXMQEVoltr0wWp-19" target="quHucMuXMQEVoltr0wWp-22">
          <mxGeometry relative="1" as="geometry" />
        </mxCell>
        <mxCell id="quHucMuXMQEVoltr0wWp-19" value="" style="sketch=0;points=[[0,0,0],[0.25,0,0],[0.5,0,0],[0.75,0,0],[1,0,0],[0,1,0],[0.25,1,0],[0.5,1,0],[0.75,1,0],[1,1,0],[0,0.25,0],[0,0.5,0],[0,0.75,0],[1,0.25,0],[1,0.5,0],[1,0.75,0]];outlineConnect=0;fontColor=#232F3E;fillColor=#ED7100;strokeColor=#ffffff;dashed=0;verticalLabelPosition=bottom;verticalAlign=top;align=center;html=1;fontSize=12;fontStyle=0;aspect=fixed;shape=mxgraph.aws4.resourceIcon;resIcon=mxgraph.aws4.lambda;" vertex="1" parent="quHucMuXMQEVoltr0wWp-5">
          <mxGeometry x="690" y="61" width="78" height="78" as="geometry" />
        </mxCell>
        <mxCell id="quHucMuXMQEVoltr0wWp-35" value="" style="edgeStyle=orthogonalEdgeStyle;rounded=0;orthogonalLoop=1;jettySize=auto;html=1;fillColor=#b0e3e6;strokeColor=#0e8088;strokeWidth=3;" edge="1" parent="quHucMuXMQEVoltr0wWp-5" source="quHucMuXMQEVoltr0wWp-22" target="quHucMuXMQEVoltr0wWp-33">
          <mxGeometry relative="1" as="geometry" />
        </mxCell>
        <mxCell id="quHucMuXMQEVoltr0wWp-22" value="" style="sketch=0;points=[[0,0,0],[0.25,0,0],[0.5,0,0],[0.75,0,0],[1,0,0],[0,1,0],[0.25,1,0],[0.5,1,0],[0.75,1,0],[1,1,0],[0,0.25,0],[0,0.5,0],[0,0.75,0],[1,0.25,0],[1,0.5,0],[1,0.75,0]];outlineConnect=0;fontColor=#232F3E;fillColor=#01A88D;strokeColor=#ffffff;dashed=0;verticalLabelPosition=bottom;verticalAlign=top;align=center;html=1;fontSize=12;fontStyle=0;aspect=fixed;shape=mxgraph.aws4.resourceIcon;resIcon=mxgraph.aws4.polly;" vertex="1" parent="quHucMuXMQEVoltr0wWp-5">
          <mxGeometry x="821" y="61" width="78" height="78" as="geometry" />
        </mxCell>
        <mxCell id="quHucMuXMQEVoltr0wWp-25" value="Source Document" style="text;strokeColor=none;align=center;fillColor=none;html=1;verticalAlign=middle;whiteSpace=wrap;rounded=0;" vertex="1" parent="quHucMuXMQEVoltr0wWp-5">
          <mxGeometry x="51" y="150" width="60" height="30" as="geometry" />
        </mxCell>
        <mxCell id="quHucMuXMQEVoltr0wWp-26" value="Lambda Trigger Invokes SM Endpoint" style="text;strokeColor=none;align=center;fillColor=none;html=1;verticalAlign=middle;whiteSpace=wrap;rounded=0;" vertex="1" parent="quHucMuXMQEVoltr0wWp-5">
          <mxGeometry x="160" y="174" width="80" height="30" as="geometry" />
        </mxCell>
        <mxCell id="quHucMuXMQEVoltr0wWp-27" value="SageMaker Async Endpoint" style="text;strokeColor=none;align=center;fillColor=none;html=1;verticalAlign=middle;whiteSpace=wrap;rounded=0;" vertex="1" parent="quHucMuXMQEVoltr0wWp-5">
          <mxGeometry x="260" y="10" width="140" height="30" as="geometry" />
        </mxCell>
        <mxCell id="quHucMuXMQEVoltr0wWp-28" value="SNS Topic" style="text;strokeColor=none;align=center;fillColor=none;html=1;verticalAlign=middle;whiteSpace=wrap;rounded=0;" vertex="1" parent="quHucMuXMQEVoltr0wWp-5">
          <mxGeometry x="399" y="20" width="140" height="30" as="geometry" />
        </mxCell>
        <mxCell id="quHucMuXMQEVoltr0wWp-29" value="SQS" style="text;strokeColor=none;align=center;fillColor=none;html=1;verticalAlign=middle;whiteSpace=wrap;rounded=0;" vertex="1" parent="quHucMuXMQEVoltr0wWp-5">
          <mxGeometry x="527" y="20" width="140" height="30" as="geometry" />
        </mxCell>
        <mxCell id="quHucMuXMQEVoltr0wWp-30" value="Summary Results" style="text;strokeColor=none;align=center;fillColor=none;html=1;verticalAlign=middle;whiteSpace=wrap;rounded=0;" vertex="1" parent="quHucMuXMQEVoltr0wWp-5">
          <mxGeometry x="399" y="210" width="140" height="30" as="geometry" />
        </mxCell>
        <mxCell id="quHucMuXMQEVoltr0wWp-31" value="Lambda Trigger Invokes Polly" style="text;strokeColor=none;align=center;fillColor=none;html=1;verticalAlign=middle;whiteSpace=wrap;rounded=0;" vertex="1" parent="quHucMuXMQEVoltr0wWp-5">
          <mxGeometry x="690" y="160" width="80" height="30" as="geometry" />
        </mxCell>
        <mxCell id="quHucMuXMQEVoltr0wWp-32" value="AWS Polly" style="text;strokeColor=none;align=center;fillColor=none;html=1;verticalAlign=middle;whiteSpace=wrap;rounded=0;" vertex="1" parent="quHucMuXMQEVoltr0wWp-5">
          <mxGeometry x="820" y="20" width="80" height="30" as="geometry" />
        </mxCell>
        <mxCell id="quHucMuXMQEVoltr0wWp-36" style="edgeStyle=orthogonalEdgeStyle;rounded=0;orthogonalLoop=1;jettySize=auto;html=1;fillColor=#b0e3e6;strokeColor=#0e8088;strokeWidth=3;" edge="1" parent="quHucMuXMQEVoltr0wWp-5" source="quHucMuXMQEVoltr0wWp-33" target="quHucMuXMQEVoltr0wWp-11">
          <mxGeometry relative="1" as="geometry" />
        </mxCell>
        <mxCell id="quHucMuXMQEVoltr0wWp-33" value="" style="sketch=0;points=[[0,0,0],[0.25,0,0],[0.5,0,0],[0.75,0,0],[1,0,0],[0,1,0],[0.25,1,0],[0.5,1,0],[0.75,1,0],[1,1,0],[0,0.25,0],[0,0.5,0],[0,0.75,0],[1,0.25,0],[1,0.5,0],[1,0.75,0]];outlineConnect=0;fontColor=#232F3E;fillColor=#ED7100;strokeColor=#ffffff;dashed=0;verticalLabelPosition=bottom;verticalAlign=top;align=center;html=1;fontSize=12;fontStyle=0;aspect=fixed;shape=mxgraph.aws4.resourceIcon;resIcon=mxgraph.aws4.lambda;" vertex="1" parent="quHucMuXMQEVoltr0wWp-5">
          <mxGeometry x="821" y="240" width="78" height="78" as="geometry" />
        </mxCell>
        <mxCell id="quHucMuXMQEVoltr0wWp-9" style="edgeStyle=orthogonalEdgeStyle;rounded=0;orthogonalLoop=1;jettySize=auto;html=1;exitX=1;exitY=0.5;exitDx=0;exitDy=0;exitPerimeter=0;entryX=0;entryY=0.5;entryDx=0;entryDy=0;entryPerimeter=0;strokeWidth=3;fillColor=#b0e3e6;strokeColor=#0e8088;" edge="1" parent="1" source="quHucMuXMQEVoltr0wWp-2" target="quHucMuXMQEVoltr0wWp-7">
          <mxGeometry relative="1" as="geometry" />
        </mxCell>
        <mxCell id="quHucMuXMQEVoltr0wWp-37" style="edgeStyle=orthogonalEdgeStyle;rounded=0;orthogonalLoop=1;jettySize=auto;html=1;entryX=0.475;entryY=1.038;entryDx=0;entryDy=0;entryPerimeter=0;strokeColor=#0e8088;fillColor=#b0e3e6;strokeWidth=3;" edge="1" parent="1" source="quHucMuXMQEVoltr0wWp-11" target="quHucMuXMQEVoltr0wWp-1">
          <mxGeometry relative="1" as="geometry">
            <Array as="points">
              <mxPoint x="630" y="430" />
              <mxPoint x="77" y="430" />
            </Array>
          </mxGeometry>
        </mxCell>
      </root>
    </mxGraphModel>
  </diagram>
</mxfile>
